<?xml version="1.0" encoding="utf-8"?>
<!-- Generator: Adobe Illustrator 18.1.0, SVG Export Plug-In . SVG Version: 6.00 Build 0)  -->
<svg version="1.1" id="Calque_1" xmlns="http://www.w3.org/2000/svg" xmlns:xlink="http://www.w3.org/1999/xlink" x="0px" y="0px"
	 viewBox="-228 409.9 102.2 22" enable-background="new -228 409.9 102.2 22" xml:space="preserve">
<path id="text" fill="#FFFFFF" d="M-223.8,424.8c-0.2-0.6-0.3-1.3-0.3-2.2c0-1,0.1-1.7,0.3-2.2c0.5-1.6,1.9-2.5,3.6-2.5
	c1.3,0,2.4,0.5,3.1,1.4c0.1,0.1,0.1,0.2,0,0.3l-1.2,1c-0.1,0.1-0.2,0.1-0.3,0c-0.4-0.5-0.9-0.8-1.6-0.8c-0.8,0-1.4,0.4-1.6,1.2
	c-0.1,0.5-0.2,1-0.2,1.7c0,0.7,0,1.2,0.2,1.7c0.3,0.8,0.9,1.2,1.6,1.2c0.7,0,1.2-0.3,1.6-0.8c0.1-0.1,0.2-0.1,0.3,0l1.2,1
	c0.1,0.1,0.1,0.2,0,0.3c-0.7,0.8-1.7,1.4-3.1,1.4C-221.9,427.3-223.3,426.4-223.8,424.8L-223.8,424.8z M-184.1,424.8
	c-0.2-0.6-0.3-1.3-0.3-2.2c0-1,0.1-1.7,0.3-2.2c0.5-1.6,1.9-2.5,3.6-2.5c1.3,0,2.4,0.5,3.1,1.4c0.1,0.1,0.1,0.2,0,0.3l-1.2,1
	c-0.1,0.1-0.2,0.1-0.3,0c-0.4-0.5-0.9-0.8-1.6-0.8c-0.8,0-1.4,0.4-1.6,1.2c-0.1,0.5-0.2,1-0.2,1.7c0,0.7,0,1.2,0.2,1.7
	c0.3,0.8,0.9,1.2,1.6,1.2c0.7,0,1.2-0.3,1.6-0.8c0.1-0.1,0.2-0.1,0.3,0l1.2,1c0.1,0.1,0.1,0.2,0,0.3c-0.7,0.8-1.7,1.4-3.1,1.4
	C-182.2,427.3-183.6,426.4-184.1,424.8L-184.1,424.8z M-137.5,427.1c-0.1,0-0.2-0.1-0.2-0.2v-5.2c0-1.2-0.6-2-1.7-2
	c-1.1,0-1.7,0.8-1.7,2v5.2c0,0.1-0.1,0.2-0.2,0.2h-1.7c-0.1,0-0.2-0.1-0.2-0.2v-5.2c0-1.2-0.6-2-1.7-2c-1.1,0-1.7,0.8-1.7,2v5.2
	c0,0.1-0.1,0.2-0.2,0.2h-1.7c-0.1,0-0.2-0.1-0.2-0.2v-8.6c0-0.1,0.1-0.2,0.2-0.2h1.7c0.1,0,0.2,0.1,0.2,0.2v0.6h0
	c0.4-0.6,1.2-1,2.3-1c1,0,1.9,0.4,2.4,1.2h0c0.7-0.8,1.6-1.2,2.8-1.2c2.1,0,3.2,1.4,3.2,3.3v5.7c0,0.1-0.1,0.2-0.2,0.2L-137.5,427.1
	L-137.5,427.1z M-133.3,430.2c-0.1,0-0.2-0.1-0.2-0.2v-1.5c0-0.1,0.1-0.2,0.2-0.2h0.3c0.7,0,1-0.3,1.3-1.1l0.3-0.8l-3.2-8.5
	c0-0.1,0-0.2,0.2-0.2h1.8c0.1,0,0.2,0.1,0.2,0.2l2,5.9h0l1.9-5.9c0-0.1,0.1-0.2,0.2-0.2h1.7c0.1,0,0.2,0.1,0.1,0.2l-3.3,9.4
	c-0.8,2.1-1.5,2.8-3,2.8L-133.3,430.2L-133.3,430.2z M-210.2,424.2c0.1-0.5,0.2-0.9,0.2-1.7c0-0.8,0-1.2-0.2-1.7
	c-0.3-0.8-0.8-1.2-1.6-1.2c-0.8,0-1.4,0.4-1.7,1.2c-0.2,0.5-0.2,0.9-0.2,1.7c0,0.8,0,1.2,0.2,1.7c0.3,0.8,0.8,1.2,1.7,1.2
	C-211.1,425.4-210.5,425-210.2,424.2L-210.2,424.2z M-215.5,424.8c-0.2-0.6-0.3-1.2-0.3-2.2c0-1,0.1-1.6,0.3-2.2
	c0.5-1.6,1.8-2.5,3.6-2.5c1.8,0,3.1,0.9,3.6,2.5c0.2,0.6,0.3,1.2,0.3,2.2c0,1-0.1,1.6-0.3,2.2c-0.5,1.6-1.8,2.5-3.6,2.5
	C-213.7,427.3-215,426.4-215.5,424.8L-215.5,424.8z M-172.5,417.8c-1.5,0-2.4,0.3-3.1,0.9c-0.1,0.1-0.1,0.2,0,0.2l0.7,1.2
	c0.1,0.1,0.2,0.1,0.3,0c0.4-0.3,1-0.6,2-0.6c1.4,0,1.9,0.4,2,1.4v3c0,1-0.7,1.5-2,1.5c-1,0-1.5-0.4-1.5-1.1c0-0.8,0.6-1.2,1.9-1.2
	h0.4c0.1,0,0.2-0.1,0.2-0.2v-1.2c0-0.1-0.1-0.2-0.2-0.2h-0.7c-2.2,0-3.5,0.9-3.5,2.9c0,1.9,1.3,2.7,3,2.7c1.2,0,2.1-0.4,2.5-1h0v0.6
	c0,0.1,0.1,0.2,0.2,0.2h1.5c0.1,0,0.2-0.1,0.2-0.2V421C-168.8,418.8-169.8,417.8-172.5,417.8L-172.5,417.8z M-194.1,421.7
	C-194.2,421.7-194.2,421.7-194.1,421.7l-0.1,1.5c0,0,0,0.1,0.1,0.1h4.5c0.1,0,0.2-0.1,0.2-0.2c0-1.4-0.1-2.1-0.3-2.7
	c-0.5-1.5-1.8-2.5-3.6-2.5c-1.8,0-3.1,0.9-3.6,2.5c-0.2,0.6-0.3,1.3-0.3,2.2c0,0.9,0.1,1.6,0.3,2.2c0.5,1.6,1.8,2.5,3.7,2.5
	c1.6,0,2.9-0.6,3.6-1.5c0.1-0.1,0.1-0.2,0-0.3l-1.1-1c-0.1-0.1-0.2-0.1-0.3,0c-0.4,0.5-1.1,0.9-2.1,0.9c-1,0-1.7-0.5-2-1.4
	c0-0.1-0.1-0.3-0.1-0.4c-0.1-0.4-0.1-0.9-0.1-1.3c0-0.5,0-0.8,0.1-1.3v0c0-0.1,0-0.2,0.1-0.3c0.2-0.7,0.9-1.2,1.7-1.2
	c0.8,0,1.5,0.4,1.7,1.2c0.1,0.2,0.1,0.5,0.1,0.8c0,0.1,0,0.1-0.1,0.1L-194.1,421.7L-194.1,421.7z M-198.9,414.2h-1.7
	c-0.1,0-0.2,0.1-0.2,0.2v8.5c0,0.5-0.1,0.9-0.2,1.2c-0.2,0.8-0.8,1.1-1.6,1.1c-0.8,0-1.4-0.4-1.6-1.1c-0.1-0.4-0.2-0.9-0.2-1.7
	s0.1-1.3,0.2-1.7c0.2-0.7,0.8-1.1,1.6-1.2h0.7c0,0,0.1,0,0.1-0.1v-1.7c0,0,0-0.1-0.1-0.1h-1.3c-1.5,0-2.5,0.7-3,2.2
	c-0.2,0.7-0.3,1.3-0.3,2.5c0,1.2,0.1,1.8,0.3,2.5c0.4,1.4,1.6,2.2,3.1,2.2c1.2,0,1.9-0.5,2.3-1.1h0v0.7c0,0.1,0.1,0.2,0.2,0.2h1.7
	c0.1,0,0.2-0.1,0.2-0.2v-12.3C-198.8,414.3-198.8,414.2-198.9,414.2L-198.9,414.2z M-154.8,421.7
	C-154.8,421.7-154.9,421.7-154.8,421.7l-0.1,1.5c0,0,0,0.1,0.1,0.1h4.5c0.1,0,0.2-0.1,0.2-0.2c0-1.4-0.1-2.1-0.3-2.7
	c-0.5-1.5-1.8-2.5-3.6-2.5c-1.8,0-3.1,0.9-3.6,2.5c-0.2,0.6-0.3,1.3-0.3,2.2c0,0.9,0.1,1.6,0.3,2.2c0.5,1.6,1.8,2.5,3.7,2.5
	c1.6,0,2.9-0.6,3.6-1.5c0.1-0.1,0.1-0.2,0-0.3l-1.1-1c-0.1-0.1-0.2-0.1-0.3,0c-0.4,0.5-1.1,0.9-2.1,0.9c-1,0-1.7-0.5-2-1.4
	c0-0.1-0.1-0.3-0.1-0.4c-0.1-0.4-0.1-0.9-0.1-1.3c0-0.5,0-0.8,0.1-1.3v0c0-0.1,0-0.2,0.1-0.3c0.2-0.7,0.9-1.2,1.7-1.2
	c0.8,0,1.5,0.4,1.7,1.2c0.1,0.2,0.1,0.5,0.1,0.8c0,0.1,0,0.1-0.1,0.1L-154.8,421.7L-154.8,421.7z M-159.6,414.2h-1.7
	c-0.1,0-0.2,0.1-0.2,0.2v8.5c0,0.5-0.1,0.9-0.2,1.2c-0.2,0.8-0.8,1.2-1.6,1.2c-0.8,0-1.4-0.4-1.6-1.2c-0.1-0.4-0.2-0.9-0.2-1.7
	s0.1-1.3,0.2-1.7c0.2-0.7,0.8-1.1,1.6-1.2h0.7c0.1,0,0.2-0.1,0.2-0.2v-1.5c0-0.1-0.1-0.2-0.2-0.2h-1.2c-1.5,0-2.6,0.7-3,2.2
	c-0.2,0.7-0.3,1.3-0.3,2.6c0,1.2,0.1,1.9,0.3,2.6c0.4,1.4,1.6,2.2,3.1,2.2c1.2,0,1.9-0.5,2.4-1.1h0v0.7c0,0.1,0.1,0.2,0.2,0.2h1.7
	c0.1,0,0.2-0.1,0.2-0.2v-12.3C-159.4,414.3-159.5,414.2-159.6,414.2L-159.6,414.2z M-184,431.2c0,0.3,0.1,0.4,0.4,0.4h5.7
	c0.3,0,0.4-0.1,0.4-0.4v-1.4c0-0.3-0.1-0.4-0.4-0.4h-5.7c-0.3,0-0.4,0.1-0.4,0.4V431.2z"/>
<path id="box" fill="#FFFFFF" d="M-225.5,429.4h-0.4c0,0,0-0.1,0,0v-17.4c0,0.1,0,0,0,0h38.3c0,0,0,0.1,0,0v17c0,0.3,0,0.3,0,0.4
	H-225.5z M-185.4,409.9C-185.5,410-185.5,409.9-185.4,409.9C-185.5,409.9-185.5,409.9-185.4,409.9c-0.1,0-0.1,0-0.4,0H-228
	c0,0,0,0.1,0,0.4v21.3c0-0.1,0-0.1,0,0h42.2c0.2,0,0.3,0,0.4,0c0-0.1,0-0.1,0-0.4V409.9z"/>
</svg>
